<svg width="256" height="256" viewBox="0 0 256 256" fill="none" xmlns="http://www.w3.org/2000/svg">
<g clip-path="url(#clip0_1_75)">
<rect width="256" height="256" fill="#030616"/>
<path d="M109.538 103.21V101.293C110.978 101.293 111.984 100.999 112.555 100.411C113.126 99.8139 113.412 98.8295 113.412 97.4574V93.7884C113.412 92.4844 113.556 91.3892 113.846 90.5028C114.145 89.608 114.596 88.892 115.201 88.3551C115.806 87.8182 116.574 87.4304 117.502 87.1918C118.431 86.9531 119.527 86.8338 120.788 86.8338V89.8636C119.799 89.8636 119.028 90.0085 118.474 90.2983C117.92 90.5881 117.532 91.0398 117.311 91.6534C117.098 92.2585 116.991 93.0341 116.991 93.9801V98.6335C116.991 99.2898 116.893 99.8991 116.697 100.462C116.501 101.016 116.139 101.497 115.61 101.906C115.082 102.315 114.328 102.635 113.348 102.865C112.368 103.095 111.098 103.21 109.538 103.21ZM120.788 119.446C119.527 119.446 118.431 119.327 117.502 119.088C116.574 118.849 115.806 118.462 115.201 117.925C114.596 117.388 114.145 116.672 113.846 115.777C113.556 114.891 113.412 113.795 113.412 112.491V108.81C113.412 107.446 113.126 106.466 112.555 105.869C111.984 105.273 110.978 104.974 109.538 104.974V103.07C111.098 103.07 112.368 103.185 113.348 103.415C114.328 103.636 115.082 103.956 115.61 104.374C116.139 104.783 116.501 105.268 116.697 105.831C116.893 106.385 116.991 106.99 116.991 107.646V112.3C116.991 113.237 117.098 114.009 117.311 114.614C117.532 115.227 117.92 115.679 118.474 115.969C119.028 116.267 119.799 116.416 120.788 116.416V119.446ZM109.538 104.974V101.293H113.079V104.974H109.538ZM134.432 86.5909L125.994 117.938H122.581L131.018 86.5909H134.432ZM147.459 103.07V104.974C146.018 104.974 145.013 105.273 144.442 105.869C143.871 106.466 143.585 107.446 143.585 108.81V112.491C143.585 113.795 143.436 114.891 143.138 115.777C142.848 116.672 142.401 117.388 141.795 117.925C141.19 118.462 140.423 118.849 139.494 119.088C138.565 119.327 137.47 119.446 136.209 119.446V116.416C137.197 116.416 137.969 116.267 138.523 115.969C139.077 115.679 139.46 115.227 139.673 114.614C139.895 114.009 140.006 113.237 140.006 112.3V107.646C140.006 106.99 140.104 106.385 140.3 105.831C140.496 105.268 140.858 104.783 141.386 104.374C141.915 103.956 142.669 103.636 143.649 103.415C144.629 103.185 145.899 103.07 147.459 103.07ZM136.209 86.8338C137.47 86.8338 138.565 86.9531 139.494 87.1918C140.423 87.4304 141.19 87.8182 141.795 88.3551C142.401 88.892 142.848 89.608 143.138 90.5028C143.436 91.3892 143.585 92.4844 143.585 93.7884V97.4574C143.585 98.8295 143.871 99.8139 144.442 100.411C145.013 100.999 146.018 101.293 147.459 101.293V103.21C145.899 103.21 144.629 103.095 143.649 102.865C142.669 102.635 141.915 102.315 141.386 101.906C140.858 101.497 140.496 101.016 140.3 100.462C140.104 99.8991 140.006 99.2898 140.006 98.6335V93.9801C140.006 93.0341 139.895 92.2585 139.673 91.6534C139.46 91.0398 139.077 90.5881 138.523 90.2983C137.969 90.0085 137.197 89.8636 136.209 89.8636V86.8338ZM147.459 101.293V104.974H143.918V101.293H147.459Z" fill="#3B82F6"/>
<mask id="path-3-outside-1_1_75" maskUnits="userSpaceOnUse" x="86" y="75" width="85" height="105" fill="black">
<rect fill="white" x="86" y="75" width="85" height="105"/>
<path d="M128.5 77C150.868 77 169 95.8658 169 119.138C169 136.961 158.363 152.197 143.335 158.355C141.296 159.191 139.84 161.104 139.84 163.308V173C139.84 175.761 137.601 178 134.84 178H125.4C122.639 178 120.4 175.761 120.4 173V164.485C120.4 162.122 118.732 160.114 116.483 159.388C99.9834 154.061 88.0001 138.056 88 119.138C88 95.8658 106.132 77 128.5 77Z"/>
</mask>
<path d="M128.5 77C150.868 77 169 95.8658 169 119.138C169 136.961 158.363 152.197 143.335 158.355C141.296 159.191 139.84 161.104 139.84 163.308V173C139.84 175.761 137.601 178 134.84 178H125.4C122.639 178 120.4 175.761 120.4 173V164.485C120.4 162.122 118.732 160.114 116.483 159.388C99.9834 154.061 88.0001 138.056 88 119.138C88 95.8658 106.132 77 128.5 77Z" fill="#1E1E1E" fill-opacity="0.117647"/>
<path d="M169 119.138L171 119.138V119.138H169ZM88 119.138L86 119.138L86 119.138L88 119.138ZM116.483 159.388L117.098 157.484L116.483 159.388ZM143.335 158.355L142.576 156.505L143.335 158.355ZM128.5 77V79C149.689 79 167 96.8949 167 119.138H169H171C171 94.8367 152.046 75 128.5 75V77ZM169 119.138L167 119.138C167 136.159 156.845 150.658 142.576 156.505L143.335 158.355L144.093 160.206C159.881 153.736 171 137.763 171 119.138L169 119.138ZM139.84 163.308H137.84V173H139.84H141.84V163.308H139.84ZM134.84 178V176H125.4V178V180H134.84V178ZM120.4 173H122.4V164.485H120.4H118.4V173H120.4ZM116.483 159.388L117.098 157.484C101.441 152.43 90.0001 137.207 90 119.138L88 119.138L86 119.138C86.0001 138.905 98.5253 155.692 115.869 161.291L116.483 159.388ZM88 119.138H90C90 96.8949 107.311 79 128.5 79V77V75C104.954 75 86 94.8367 86 119.138H88ZM120.4 164.485H122.4C122.4 161.135 120.054 158.439 117.098 157.484L116.483 159.388L115.869 161.291C117.411 161.789 118.4 163.108 118.4 164.485H120.4ZM125.4 178V176C123.744 176 122.4 174.657 122.4 173H120.4H118.4C118.4 176.866 121.534 180 125.4 180V178ZM139.84 173H137.84C137.84 174.657 136.497 176 134.84 176V178V180C138.706 180 141.84 176.866 141.84 173H139.84ZM143.335 158.355L142.576 156.505C139.89 157.606 137.84 160.187 137.84 163.308H139.84H141.84C141.84 162.022 142.703 160.776 144.093 160.206L143.335 158.355Z" fill="white" mask="url(#path-3-outside-1_1_75)"/>
<path d="M121 178H138V184.545L129.5 190L121 184.545V178Z" fill="white" stroke="white"/>
<path d="M113.59 149H105.067L108.689 127.182H116.871C119.115 127.182 120.99 127.633 122.496 128.535C124.002 129.437 125.071 130.726 125.703 132.402C126.335 134.078 126.459 136.074 126.076 138.389C125.706 140.619 124.957 142.526 123.828 144.11C122.706 145.694 121.271 146.905 119.524 147.743C117.784 148.581 115.806 149 113.59 149ZM111.821 143.972H113.973C115.053 143.972 116.015 143.783 116.86 143.407C117.713 143.023 118.423 142.384 118.991 141.489C119.566 140.587 119.982 139.355 120.237 137.793C120.479 136.315 120.472 135.175 120.216 134.373C119.96 133.563 119.474 133.002 118.757 132.69C118.039 132.37 117.112 132.21 115.976 132.21H113.782L111.821 143.972ZM130.691 127.182H138.063L141.089 139.54H141.345L148.461 127.182H155.833L152.211 149H146.416L148.504 136.386H148.333L141.43 148.83H137.935L135.166 136.301H134.995L132.864 149H127.069L130.691 127.182Z" fill="#3B82F6"/>
</g>
<defs>
<clipPath id="clip0_1_75">
<rect width="256" height="256" fill="white"/>
</clipPath>
</defs>
</svg>
