<svg width="256" height="256" viewBox="0 0 256 256" fill="none" xmlns="http://www.w3.org/2000/svg">
<rect width="256" height="256" fill="white"/>
<mask id="path-2-outside-1_1_80" maskUnits="userSpaceOnUse" x="86" y="75" width="85" height="105" fill="black">
<rect fill="white" x="86" y="75" width="85" height="105"/>
<path d="M128.5 77C150.868 77 169 95.8658 169 119.138C169 136.961 158.363 152.197 143.335 158.355C141.296 159.191 139.84 161.104 139.84 163.308V173C139.84 175.761 137.601 178 134.84 178H125.4C122.639 178 120.4 175.761 120.4 173V164.485C120.4 162.122 118.732 160.114 116.483 159.388C99.9834 154.061 88.0001 138.056 88 119.138C88 95.8658 106.132 77 128.5 77Z"/>
</mask>
<path d="M128.5 77C150.868 77 169 95.8658 169 119.138C169 136.961 158.363 152.197 143.335 158.355C141.296 159.191 139.84 161.104 139.84 163.308V173C139.84 175.761 137.601 178 134.84 178H125.4C122.639 178 120.4 175.761 120.4 173V164.485C120.4 162.122 118.732 160.114 116.483 159.388C99.9834 154.061 88.0001 138.056 88 119.138C88 95.8658 106.132 77 128.5 77Z" fill="white"/>
<path d="M169 119.138L171 119.138V119.138H169ZM88 119.138L86 119.138L86 119.138L88 119.138ZM116.483 159.388L117.098 157.484L116.483 159.388ZM143.335 158.355L142.576 156.505L143.335 158.355ZM128.5 77V79C149.689 79 167 96.8949 167 119.138H169H171C171 94.8367 152.046 75 128.5 75V77ZM169 119.138L167 119.138C167 136.159 156.845 150.658 142.576 156.505L143.335 158.355L144.093 160.206C159.881 153.736 171 137.763 171 119.138L169 119.138ZM139.84 163.308H137.84V173H139.84H141.84V163.308H139.84ZM134.84 178V176H125.4V178V180H134.84V178ZM120.4 173H122.4V164.485H120.4H118.4V173H120.4ZM116.483 159.388L117.098 157.484C101.441 152.43 90.0001 137.207 90 119.138L88 119.138L86 119.138C86.0001 138.905 98.5253 155.692 115.869 161.291L116.483 159.388ZM88 119.138H90C90 96.8949 107.311 79 128.5 79V77V75C104.954 75 86 94.8367 86 119.138H88ZM120.4 164.485H122.4C122.4 161.135 120.054 158.439 117.098 157.484L116.483 159.388L115.869 161.291C117.411 161.789 118.4 163.108 118.4 164.485H120.4ZM125.4 178V176C123.744 176 122.4 174.657 122.4 173H120.4H118.4C118.4 176.866 121.534 180 125.4 180V178ZM139.84 173H137.84C137.84 174.657 136.497 176 134.84 176V178V180C138.706 180 141.84 176.866 141.84 173H139.84ZM143.335 158.355L142.576 156.505C139.89 157.606 137.84 160.187 137.84 163.308H139.84H141.84C141.84 162.022 142.703 160.776 144.093 160.206L143.335 158.355Z" fill="#1E1E1E" mask="url(#path-2-outside-1_1_80)"/>
<path d="M109.538 101.21V99.2926C110.978 99.2926 111.984 98.9986 112.555 98.4105C113.126 97.8139 113.412 96.8295 113.412 95.4574V91.7884C113.412 90.4844 113.556 89.3892 113.846 88.5028C114.145 87.608 114.596 86.892 115.201 86.3551C115.806 85.8182 116.574 85.4304 117.502 85.1918C118.431 84.9531 119.527 84.8338 120.788 84.8338V87.8636C119.799 87.8636 119.028 88.0085 118.474 88.2983C117.92 88.5881 117.532 89.0398 117.311 89.6534C117.098 90.2585 116.991 91.0341 116.991 91.9801V96.6335C116.991 97.2898 116.893 97.8991 116.697 98.4616C116.501 99.0156 116.139 99.4972 115.61 99.9062C115.082 100.315 114.328 100.635 113.348 100.865C112.368 101.095 111.098 101.21 109.538 101.21ZM120.788 117.446C119.527 117.446 118.431 117.327 117.502 117.088C116.574 116.849 115.806 116.462 115.201 115.925C114.596 115.388 114.145 114.672 113.846 113.777C113.556 112.891 113.412 111.795 113.412 110.491V106.81C113.412 105.446 113.126 104.466 112.555 103.869C111.984 103.273 110.978 102.974 109.538 102.974V101.07C111.098 101.07 112.368 101.185 113.348 101.415C114.328 101.636 115.082 101.956 115.61 102.374C116.139 102.783 116.501 103.268 116.697 103.831C116.893 104.385 116.991 104.99 116.991 105.646V110.3C116.991 111.237 117.098 112.009 117.311 112.614C117.532 113.227 117.92 113.679 118.474 113.969C119.028 114.267 119.799 114.416 120.788 114.416V117.446ZM109.538 102.974V99.2926H113.079V102.974H109.538ZM134.432 84.5909L125.994 115.938H122.581L131.018 84.5909H134.432ZM147.459 101.07V102.974C146.018 102.974 145.013 103.273 144.442 103.869C143.871 104.466 143.585 105.446 143.585 106.81V110.491C143.585 111.795 143.436 112.891 143.138 113.777C142.848 114.672 142.401 115.388 141.795 115.925C141.19 116.462 140.423 116.849 139.494 117.088C138.565 117.327 137.47 117.446 136.209 117.446V114.416C137.197 114.416 137.969 114.267 138.523 113.969C139.077 113.679 139.46 113.227 139.673 112.614C139.895 112.009 140.006 111.237 140.006 110.3V105.646C140.006 104.99 140.104 104.385 140.3 103.831C140.496 103.268 140.858 102.783 141.386 102.374C141.915 101.956 142.669 101.636 143.649 101.415C144.629 101.185 145.899 101.07 147.459 101.07ZM136.209 84.8338C137.47 84.8338 138.565 84.9531 139.494 85.1918C140.423 85.4304 141.19 85.8182 141.795 86.3551C142.401 86.892 142.848 87.608 143.138 88.5028C143.436 89.3892 143.585 90.4844 143.585 91.7884V95.4574C143.585 96.8295 143.871 97.8139 144.442 98.4105C145.013 98.9986 146.018 99.2926 147.459 99.2926V101.21C145.899 101.21 144.629 101.095 143.649 100.865C142.669 100.635 141.915 100.315 141.386 99.9062C140.858 99.4972 140.496 99.0156 140.3 98.4616C140.104 97.8991 140.006 97.2898 140.006 96.6335V91.9801C140.006 91.0341 139.895 90.2585 139.673 89.6534C139.46 89.0398 139.077 88.5881 138.523 88.2983C137.969 88.0085 137.197 87.8636 136.209 87.8636V84.8338ZM147.459 99.2926V102.974H143.918V99.2926H147.459Z" fill="#60A5FA"/>
<path d="M122 178H139V184.545L130.5 190L122 184.545V178Z" fill="black" stroke="#1E1E1E"/>
<path d="M111.59 147H103.067L106.689 125.182H114.871C117.115 125.182 118.99 125.633 120.496 126.535C122.002 127.437 123.071 128.726 123.703 130.402C124.335 132.078 124.459 134.074 124.076 136.389C123.706 138.619 122.957 140.526 121.828 142.11C120.706 143.694 119.271 144.905 117.524 145.743C115.784 146.581 113.806 147 111.59 147ZM109.821 141.972H111.973C113.053 141.972 114.015 141.783 114.86 141.407C115.713 141.023 116.423 140.384 116.991 139.489C117.566 138.587 117.982 137.355 118.237 135.793C118.479 134.315 118.472 133.175 118.216 132.373C117.96 131.563 117.474 131.002 116.757 130.69C116.039 130.37 115.112 130.21 113.976 130.21H111.782L109.821 141.972ZM128.691 125.182H136.063L139.089 137.54H139.345L146.461 125.182H153.833L150.211 147H144.416L146.504 134.386H146.333L139.43 146.83H135.935L133.166 134.301H132.995L130.864 147H125.069L128.691 125.182Z" fill="#60A5FA"/>
</svg>
